<svg xmlns="http://www.w3.org/2000/svg" xmlns:xlink="http://www.w3.org/1999/xlink" width="500" zoomAndPan="magnify" viewBox="0 0 375 374.999991" height="500" preserveAspectRatio="xMidYMid meet" version="1.0"><defs><g/><clipPath id="267ac148b0"><path d="M 7.5 7.5 L 367.5 7.5 L 367.5 367.5 L 7.5 367.5 Z M 7.5 7.5 " clip-rule="nonzero"/></clipPath></defs><rect x="-37.5" width="450" fill="#ffffff" y="-37.499999" height="449.999989" fill-opacity="1"/><rect x="-37.5" width="450" fill="#ffffff" y="-37.499999" height="449.999989" fill-opacity="1"/><g clip-path="url(#267ac148b0)"><path stroke-linecap="butt" transform="matrix(0.75, 0, 0, 0.75, 7.500004, 7.5)" fill-opacity="1" fill="#ffffff" fill-rule="nonzero" stroke-linejoin="miter" d="M -0.00000534333 0.000000656667 L 480.000026 0.000000656667 L 480.000026 480.000032 L -0.00000534333 480.000032 Z M -0.00000534333 0.000000656667 " stroke="#000000" stroke-width="20" stroke-opacity="1" stroke-miterlimit="4"/></g><path stroke-linecap="butt" transform="matrix(4.355609, 0, 0, 4.355609, 14.636778, 26.342472)" fill="none" stroke-linejoin="miter" d="M 75.203847 54.000351 L 59.527221 54.000351 L 59.527221 30.173315 L 45.517806 54.000351 L 33.825805 54.000351 L 19.842398 30.173315 L 19.842398 54.000351 L 4.166669 54.000351 L 4.166669 16.632943 L 22.784904 16.632943 L 39.684809 43.323565 L 56.558706 16.632943 L 75.203847 16.632943 Z M 75.203847 54.000351 " stroke="#000000" stroke-width="1.999999" stroke-opacity="1" stroke-miterlimit="4"/><g fill="#000000" fill-opacity="1"><g transform="translate(17.162299, 292.954699)"><g><path d="M 225.734375 0 L 114.703125 0 L 114.703125 -199.171875 L 11.0625 -199.171875 L 11.0625 -264.640625 L 329.375 -264.640625 L 329.375 -199.171875 L 225.734375 -199.171875 Z M 225.734375 0 "/></g></g></g><path stroke-linecap="butt" transform="matrix(4.971155, 0, 0, 4.971155, 30.535754, 78.983966)" fill="none" stroke-linejoin="miter" d="M 62.756451 53.999886 L 46.871845 53.999886 L 43.357037 47.880207 L 19.790614 47.880207 L 16.27502 53.999886 L 0.390414 53.999886 L 24.295509 16.658685 L 38.851356 16.658685 Z M 38.070288 38.636254 L 31.586791 27.30919 L 25.076577 38.636254 Z M 38.070288 38.636254 " stroke="#ffffff" stroke-width="3.999998" stroke-opacity="1" stroke-miterlimit="4"/><g fill="#000000" fill-opacity="1"><g transform="translate(30.535754, 347.426346)"><g><path d="M 311.96875 0 L 233 0 L 215.53125 -30.421875 L 98.375 -30.421875 L 80.90625 0 L 1.9375 0 L 120.78125 -185.625 L 193.140625 -185.625 Z M 189.25 -76.375 L 157.015625 -132.6875 L 124.65625 -76.375 Z M 189.25 -76.375 "/></g></g></g></svg>